<svg xmlns="http://www.w3.org/2000/svg" width="60" height="60" viewBox="0 0 60 60">
  <g id="kart" transform="translate(-1810 -21)">
    <g id="Ellipse_13424" data-name="Ellipse 13424" transform="translate(1810 21)" fill="none" stroke="#fff" stroke-width="1">
      <circle cx="30" cy="30" r="30" stroke="none"/>
      <circle cx="30" cy="30" r="29.5" fill="none"/>
    </g>
    <g id="Group_152410" data-name="Group 152410" transform="translate(-5916.679 258)">
      <g id="Group_152408" data-name="Group 152408" transform="translate(7758.297 -196.04)">
        <path id="Path_318545" data-name="Path 318545" d="M716.909,636.86a1.753,1.753,0,0,0-1.49.839,5.021,5.021,0,0,0-.669,2.528v.086a.131.131,0,0,0,.132.131h.678a.133.133,0,0,0,.132-.13,3.562,3.562,0,0,1,.311-1.657,1.118,1.118,0,0,1,.914-.742.742.742,0,0,1,0,1.485,1.069,1.069,0,0,1-.661-.261.869.869,0,0,1-.154-.173c-.021.074-.051.191-.062.242-.075.318-.17.86-.015.992a1.289,1.289,0,0,0,.888.245,1.792,1.792,0,0,0,0-3.583Z" transform="translate(-714.75 -636.86)" fill="#fff"/>
        <path id="Path_318547" data-name="Path 318547" d="M734.963,652.907a.287.287,0,1,0-.287.287A.287.287,0,0,0,734.963,652.907Z" transform="translate(-732.514 -651.114)" fill="#fff"/>
      </g>
      <path id="Path_318548" data-name="Path 318548" d="M602.35,589.5h-13.6a1.358,1.358,0,0,0-1.355,1.355v.86a1.358,1.358,0,0,0,1.355,1.355h2.8a2.421,2.421,0,0,1,2.366-1.99,2.388,2.388,0,0,1,2.037,1.141,4.244,4.244,0,0,1,.416.851h1.591a4.292,4.292,0,0,1,.413-.85,2.388,2.388,0,0,1,2.038-1.14,2.421,2.421,0,0,1,2.366,1.99h.159a.856.856,0,0,0,.149-.009h.608c.6.012,1.116-1.064,1.116-1.064Z" transform="translate(7160.123 -787.74)" fill="#fff"/>
      <path id="Path_318546" data-name="Path 318546" d="M679.84,652.907a.287.287,0,1,0,.287-.287A.287.287,0,0,0,679.84,652.907Z" transform="translate(7073.83 -847.155)" fill="#fff"/>
      <path id="Path_318544" data-name="Path 318544" d="M668.494,640.227a5.071,5.071,0,0,0-.669-2.528,1.753,1.753,0,0,0-1.49-.839,1.792,1.792,0,0,0,0,3.583,1.306,1.306,0,0,0,.888-.245c.155-.136.058-.669-.015-.992-.012-.049-.042-.167-.062-.242a.9.9,0,0,1-.154.173,1.068,1.068,0,0,1-.661.261.742.742,0,0,1,0-1.485,1.113,1.113,0,0,1,.914.742,3.542,3.542,0,0,1,.312,1.657.132.132,0,0,0,.132.13h.678a.131.131,0,0,0,.132-.131C668.495,640.284,668.495,640.255,668.494,640.227Z" transform="translate(7087.629 -832.9)" fill="#fff"/>
      <rect id="Rectangle_26712" data-name="Rectangle 26712" width="3.875" height="18.602" rx="1.938" transform="matrix(0.978, -0.208, 0.208, 0.978, 7742.258, -220.032)" fill="#fff"/>
      <rect id="Rectangle_26717" data-name="Rectangle 26717" width="3.875" height="11.11" rx="1.938" transform="matrix(0.978, -0.208, 0.208, 0.978, 7745.375, -205.374)" fill="#fff"/>
      <path id="Rectangle_26716" data-name="Rectangle 26716" d="M2.385,0h0A1.491,1.491,0,0,1,3.875,1.491V5.177A1.491,1.491,0,0,1,2.385,6.667H1.491A1.491,1.491,0,0,1,0,5.177V2.385A2.385,2.385,0,0,1,2.385,0Z" transform="translate(7746.346 -221) rotate(90)" fill="#fff"/>
      <rect id="Rectangle_26718" data-name="Rectangle 26718" width="3.15" height="27.297" rx="1.575" transform="translate(7772.563 -215.004) rotate(90)" fill="#fff"/>
      <rect id="Rectangle_26719" data-name="Rectangle 26719" width="3.15" height="18.898" rx="1.575" transform="translate(7767.313 -204.505) rotate(90)" fill="#fff"/>
      <path id="Rectangle_26720" data-name="Rectangle 26720" d="M1.8,0h0a1.8,1.8,0,0,1,1.8,1.8v.539a1.8,1.8,0,0,1-1.8,1.8H0a0,0,0,0,1,0,0V1.8A1.8,1.8,0,0,1,1.8,0Z" transform="translate(7766.632 -198.264) rotate(90)" fill="#fff"/>
      <rect id="Rectangle_26715" data-name="Rectangle 26715" width="3.875" height="15.217" rx="1.938" transform="translate(7770.797 -215.618) rotate(28)" fill="#fff"/>
    </g>
  </g>
</svg>
